HIERARCHY
ROOT hip
{
  OFFSET 0 0 0
  CHANNELS 6 Xposition Yposition Zposition Zrotation Yrotation Xrotation
  JOINT abdomen
  {
    OFFSET 0 20.6881 -0.73152
    CHANNELS 3 Zrotation Xrotation Yrotation
    JOINT chest
    {
      OFFSET 0 11.7043 -0.48768
      CHANNELS 3 Zrotation Xrotation Yrotation
      JOINT neck
      {
        OFFSET 0 22.1894 -2.19456
        CHANNELS 3 Zrotation Xrotation Yrotation
        JOINT head
        {
          OFFSET -0.24384 7.07133 1.2192
          CHANNELS 3 Zrotation Xrotation Yrotation
          JOINT leftEye
          {
            OFFSET 4.14528 8.04674 8.04672
            CHANNELS 3 Zrotation Xrotation Yrotation
            End Site
            {
              OFFSET 1 0 0
            }
          }
          JOINT rightEye
          {
            OFFSET -3.6576 8.04674 8.04672
            CHANNELS 3 Zrotation Xrotation Yrotation
            End Site
            {
              OFFSET 1 0 0
            }
          }
        }
      }
      JOINT rCollar
      {
        OFFSET -2.68224 19.2634 -4.8768
        CHANNELS 3 Zrotation Xrotation Yrotation
        JOINT rShldr
        {
          OFFSET -8.77824 -1.95073 1.46304
          CHANNELS 3 Zrotation Xrotation Yrotation
          JOINT rForeArm
          {
            OFFSET -28.1742 -1.7115 0.48768
            CHANNELS 3 Zrotation Xrotation Yrotation
            JOINT rHand
            {
              OFFSET -22.5879 0.773209 7.07136
              CHANNELS 3 Zrotation Xrotation Yrotation
              JOINT rThumb1
              {
                OFFSET -1.2192 -0.487915 3.41376
                CHANNELS 3 Zrotation Xrotation Yrotation
                JOINT rThumb2
                {
                  OFFSET -3.37035 -0.52449 3.41376
                  CHANNELS 3 Zrotation Xrotation Yrotation
                  End Site
                  {
                    OFFSET -1.78271 -1.18214 1.43049
                  }
                }
              }
              JOINT rIndex1
              {
                OFFSET -7.75947 0.938293 5.60832
                CHANNELS 3 Zrotation Xrotation Yrotation
                JOINT rIndex2
                {
                  OFFSET -2.54057 -0.884171 1.56538
                  CHANNELS 3 Zrotation Xrotation Yrotation
                  End Site
                  {
                    OFFSET -1.62519 -0.234802 1.16502
                  }
                }
              }
              JOINT rMid1
              {
                OFFSET -8.24714 1.18213 3.41376
                CHANNELS 3 Zrotation Xrotation Yrotation
                JOINT rMid2
                {
                  OFFSET -3.10165 -0.590103 1.0647
                  CHANNELS 3 Zrotation Xrotation Yrotation
                  End Site
                  {
                    OFFSET -2.48547 -0.328903 0.83742
                  }
                }
              }
              JOINT rRing1
              {
                OFFSET -8.82822 0.546677 1.51678
                CHANNELS 3 Zrotation Xrotation Yrotation
                JOINT rRing2
                {
                  OFFSET -2.60934 -0.819778 -0.0198488
                  CHANNELS 3 Zrotation Xrotation Yrotation
                  End Site
                  {
                    OFFSET -2.33842 -0.294052 0.168128
                  }
                }
              }
              JOINT rPinky1
              {
                OFFSET -8.27202 -0.0477905 -0.4584
                CHANNELS 3 Zrotation Xrotation Yrotation
                JOINT rPinky2
                {
                  OFFSET -1.82734 -0.647385 -0.700984
                  CHANNELS 3 Zrotation Xrotation Yrotation
                  End Site
                  {
                    OFFSET -1.69225 -0.51767 -0.607171
                  }
                }
              }
            }
          }
        }
      }
      JOINT lCollar
      {
        OFFSET 2.68224 19.2634 -4.8768
        CHANNELS 3 Zrotation Xrotation Yrotation
        JOINT lShldr
        {
          OFFSET 8.77824 -1.95073 1.46304
          CHANNELS 3 Zrotation Xrotation Yrotation
          JOINT lForeArm
          {
            OFFSET 28.1742 -1.7115 0.48768
            CHANNELS 3 Zrotation Xrotation Yrotation
            JOINT lHand
            {
              OFFSET 22.5879 0.773209 7.07136
              CHANNELS 3 Zrotation Xrotation Yrotation
              JOINT lThumb1
              {
                OFFSET 1.2192 -0.487915 3.41376
                CHANNELS 3 Zrotation Xrotation Yrotation
                JOINT lThumb2
                {
                  OFFSET 3.37035 -0.52449 3.41376
                  CHANNELS 3 Zrotation Xrotation Yrotation
                  End Site
                  {
                    OFFSET 1.78271 -1.18214 1.43049
                  }
                }
              }
              JOINT lIndex1
              {
                OFFSET 7.75947 0.938293 5.60832
                CHANNELS 3 Zrotation Xrotation Yrotation
                JOINT lIndex2
                {
                  OFFSET 2.54057 -0.884171 1.56538
                  CHANNELS 3 Zrotation Xrotation Yrotation
                  End Site
                  {
                    OFFSET 1.62519 -0.234802 1.16502
                  }
                }
              }
              JOINT lMid1
              {
                OFFSET 8.24714 1.18213 3.41376
                CHANNELS 3 Zrotation Xrotation Yrotation
                JOINT lMid2
                {
                  OFFSET 3.10165 -0.590103 1.0647
                  CHANNELS 3 Zrotation Xrotation Yrotation
                  End Site
                  {
                    OFFSET 2.48547 -0.328903 0.83742
                  }
                }
              }
              JOINT lRing1
              {
                OFFSET 8.82822 0.546677 1.51678
                CHANNELS 3 Zrotation Xrotation Yrotation
                JOINT lRing2
                {
                  OFFSET 2.60934 -0.819778 -0.0198488
                  CHANNELS 3 Zrotation Xrotation Yrotation
                  End Site
                  {
                    OFFSET 2.33842 -0.294052 0.168128
                  }
                }
              }
              JOINT lPinky1
              {
                OFFSET 8.27202 -0.0477905 -0.4584
                CHANNELS 3 Zrotation Xrotation Yrotation
                JOINT lPinky2
                {
                  OFFSET 1.82734 -0.647385 -0.700984
                  CHANNELS 3 Zrotation Xrotation Yrotation
                  End Site
                  {
                    OFFSET 1.69225 -0.51767 -0.607171
                  }
                }
              }
            }
          }
        }
      }
    }
  }
  JOINT rButtock
  {
    OFFSET -8.77824 4.35084 1.2192
    CHANNELS 3 Zrotation Xrotation Yrotation
    JOINT rThigh
    {
      OFFSET 0 -1.70687 -2.19456
      CHANNELS 3 Zrotation Xrotation Yrotation
      JOINT rShin
      {
        OFFSET 0 -36.8199 0.73152
        CHANNELS 3 Zrotation Xrotation Yrotation
        JOINT rFoot
        {
          OFFSET 0.73152 -45.1104 -5.12064
          CHANNELS 3 Zrotation Xrotation Yrotation
          End Site
          {
            OFFSET -1.1221 -3.69964 12.103
          }
        }
      }
    }
  }
  JOINT lButtock
  {
    OFFSET 8.77824 4.35084 1.2192
    CHANNELS 3 Zrotation Xrotation Yrotation
    JOINT lThigh
    {
      OFFSET 0 -1.70687 -2.19456
      CHANNELS 3 Zrotation Xrotation Yrotation
      JOINT lShin
      {
        OFFSET 0 -36.8199 0.73152
        CHANNELS 3 Zrotation Xrotation Yrotation
        JOINT lFoot
        {
          OFFSET -0.73152 -45.1104 -5.12064
          CHANNELS 3 Zrotation Xrotation Yrotation
          End Site
          {
            OFFSET 1.1221 -3.69964 12.103
          }
        }
      }
    }
  }
}
MOTION
Frames:	7
Frame Time:	0.00833333
-2.88974 84.2564 30.7164 0.0 0.0 0.0 -1.24151 -0.0039812 -0.0340788 -0.342493 -0.00249266 -0.0593271 1.88678e-14 -7.95139e-16 -1.36665e-16 5.65387e-14 3.18055e-15 -4.00675e-16 -0.0 0.0 0.0 -0.0 0.0 0.0 9.5407e-15 8.3474e-18 1.98785e-16 2.00001e-13 3.91357e-16 -3.97569e-16 3.41264e-12 -1.01639e-12 -6.99722e-14 3.90839e-11 1.05177e-12 -2.09917e-13 9.21886e-11 7.53242e-14 -5.91583e-13 1.59204e-10 1.27222e-13 -1.02573e-12 9.21939e-11 7.71284e-14 -5.97944e-13 7.73091 5.47488 0.417314 9.21867e-11 7.4743e-14 -5.88403e-13 2.90554 0.965183 0.102902 9.21915e-11 7.55382e-14 -5.93173e-13 10.2786 0.731801 0.0259123 9.2178e-11 7.83212e-14 -5.7568e-13 2.22167 -0.733487 -0.20892 9.34446e-15 8.54153e-18 -2.98177e-16 1.97678e-13 -1.11816e-16 -1.59028e-15 3.41815e-12 1.02613e-12 -5.08889e-14 3.90969e-11 -9.90917e-13 -2.06736e-13 9.22268e-11 7.64989e-14 -5.78861e-13 1.59282e-10 1.33583e-13 -1.00346e-12 9.22218e-11 7.71284e-14 -5.69319e-13 -7.73091 5.47488 -0.417314 9.22275e-11 7.61345e-14 -5.82042e-13 -2.90554 0.965183 -0.102902 9.22224e-11 7.64327e-14 -5.82042e-13 -10.2786 0.731801 -0.0259123 9.22373e-11 7.99114e-14 -5.94764e-13 -2.22167 -0.733487 0.20892 -2.03217e-16 0.0 -3.88251e-19 -0.453849 -1.92099 -0.00952697 -0.00915554 -2.07857 -0.0755516 -0.487443 3.99699 0.136651 2.03217e-16 0.0 3.88251e-19 -1.43729 -5.97115 0.129663 -0.00126413 5.25795 -0.0454128 0.507836 0.710746 -0.0722765
-4.21517 83.7549 29.5132 -0.8041 -3.4577 2.7264 -1.31684 -1.15893 0.55072 -0.114105 -1.02093 0.123673 -0.885379 1.68656 -0.82803 1.76291 1.63975 -1.58991 -0.0 0.0 0.0 -0.0 0.0 0.0 7.02002e-15 -2.35627e-14 3.10019e-15 24.1382 3.72837 -6.36812 -7.40986 -4.39101 10.2426 0.0360095 4.21138 0.586109 3.8934e-11 3.124e-11 3.6422e-11 6.75875e-11 5.37518e-11 6.36984e-11 3.8939e-11 3.12417e-11 3.64148e-11 7.73091 5.47488 0.417314 3.89324e-11 3.12387e-11 3.6424e-11 2.90554 0.965183 0.102902 3.89384e-11 3.12393e-11 3.64208e-11 10.2786 0.731801 0.0259123 3.89255e-11 3.12411e-11 3.64362e-11 2.22167 -0.733487 -0.20892 6.87206e-15 -2.35618e-14 2.65292e-15 -23.2561 6.40726 3.75627 5.92827 -3.15174 -8.70777 -0.00739007 1.90707 -0.267485 1.6896e-10 1.2159e-10 -7.53953e-11 2.91604e-10 2.09966e-10 -1.31433e-10 1.68956e-10 1.2159e-10 -7.5382e-11 -7.73091 5.47488 -0.417314 1.68961e-10 1.21588e-10 -7.53957e-11 -2.90554 0.965183 -0.102902 1.68958e-10 1.21588e-10 -7.53974e-11 -10.2786 0.731801 -0.0259123 1.68971e-10 1.21591e-10 -7.54097e-11 -2.22167 -0.733487 0.20892 -2.03217e-16 0.0 -3.88251e-19 -6.23926 -2.17184 -0.0103192 -0.00638075 -1.72795 -0.0551925 -0.242655 3.89448 0.0991831 2.03217e-16 0.0 3.88251e-19 0.557815 -6.92431 -2.16032 -0.0147909 9.56011 -0.164434 0.726075 -4.725 3.80888
-4.2095 83.7561 29.5143 -0.778 -3.4727 2.7199 -1.37162 -2.3801 1.17016 0.134384 -2.09782 0.317462 -1.76841 3.46882 -1.70608 3.72645 3.36871 -3.27556 -0.0 0.0 0.0 -0.0 0.0 0.0 4.11706e-15 -4.87988e-14 4.78015e-15 50.5568 7.51552 -13.1881 -13.5583 -8.5635 21.256 -0.0205872 8.66165 1.21629 -1.23862e-11 5.82687e-11 7.71642e-11 -2.06358e-11 1.0023e-10 1.34839e-10 -1.23814e-11 5.82703e-11 7.71561e-11 7.73091 5.47488 0.417314 -1.23873e-11 5.82667e-11 7.71648e-11 2.90554 0.965183 0.102902 -1.23802e-11 5.82671e-11 7.71633e-11 10.2786 0.731801 0.0259123 -1.23925e-11 5.82678e-11 7.71766e-11 2.22167 -0.733487 -0.20892 4.02095e-15 -4.87971e-14 4.38258e-15 -48.7735 13.089 7.8847 11.1653 -6.24068 -17.996 0.00419857 3.92209 -0.551117 2.61915e-10 2.7344e-10 -1.55261e-10 4.51955e-10 4.7224e-10 -2.70754e-10 2.61912e-10 2.73439e-10 -1.55243e-10 -7.73091 5.47488 -0.417314 2.61917e-10 2.73437e-10 -1.55258e-10 -2.90554 0.965183 -0.102902 2.61914e-10 2.73436e-10 -1.55261e-10 -10.2786 0.731801 -0.0259123 2.61926e-10 2.73439e-10 -1.55273e-10 -2.22167 -0.733487 0.20892 -2.03217e-16 0.0 -3.88251e-19 -12.3552 -2.43704 -0.0111574 -0.00371863 -1.35721 -0.0336827 0.0159641 3.78604 0.0595846 2.03217e-16 0.0 3.88251e-19 2.58371 -7.91811 -4.58845 -0.00905548 14.1078 -0.29457 1.76612 -10.3907 8.01535
-4.20927 83.7548 29.5106 -0.7813 -3.462 2.7355 -1.39666 -3.46743 1.72314 0.362209 -3.0577 0.490313 -2.50946 5.05545 -2.49272 5.56224 4.90409 -4.78534 -0.0 0.0 0.0 -0.0 0.0 0.0 1.97866e-15 -7.07048e-14 8.90299e-15 74.8859 10.6297 -19.4098 -17.6932 -11.4895 31.333 -0.155864 12.6288 1.79707 -6.75753e-11 9.35693e-11 1.10449e-10 -1.15645e-10 1.61001e-10 1.93147e-10 -6.75707e-11 9.35707e-11 1.1044e-10 7.73091 5.47488 0.417314 -6.75762e-11 9.35667e-11 1.10449e-10 2.90554 0.965183 0.102902 -6.75679e-11 9.35669e-11 1.10449e-10 10.2786 0.731801 0.0259123 -6.75796e-11 9.35667e-11 1.1046e-10 2.22167 -0.733487 -0.20892 1.92726e-15 -7.07026e-14 8.55512e-15 -72.3915 18.882 11.8442 14.9948 -8.5833 -26.4016 0.0314746 5.72072 -0.806026 3.22427e-10 3.64617e-10 -2.25028e-10 5.56249e-10 6.29631e-10 -3.92292e-10 3.22425e-10 3.64615e-10 -2.25007e-10 -7.73091 5.47488 -0.417314 3.22429e-10 3.64612e-10 -2.25023e-10 -2.90554 0.965183 -0.102902 3.22428e-10 3.64611e-10 -2.25028e-10 -10.2786 0.731801 -0.0259123 3.22438e-10 3.64614e-10 -2.2504e-10 -2.22167 -0.733487 0.20892 -2.03217e-16 0.0 -3.88251e-19 -17.8101 -2.67356 -0.011905 -0.00157871 -1.0267 -0.0145007 0.246517 3.68947 0.0242747 2.03217e-16 0.0 3.88251e-19 4.31786 -8.78449 -6.77137 0.0144778 18.1641 -0.416777 3.42254 -15.3044 11.9625
-4.21016 83.7524 29.5045 -0.7938 -3.4387 2.7607 -1.3975 -4.22152 2.10724 0.524542 -3.72511 0.610191 -2.99937 6.15708 -3.04257 6.88543 5.96998 -5.84055 -0.0 0.0 0.0 -0.0 0.0 0.0 1.75168e-15 -8.42859e-14 1.9133e-14 92.2539 12.5908 -23.8445 -19.9271 -12.9075 38.4907 -0.29972 15.3931 2.21751 -1.32437e-10 1.4955e-10 1.25091e-10 -2.2762e-10 2.57504e-10 2.19374e-10 -1.32432e-10 1.4955e-10 1.25082e-10 7.73091 5.47488 0.417314 -1.32438e-10 1.49547e-10 1.25091e-10 2.90554 0.965183 0.102902 -1.32429e-10 1.49547e-10 1.25091e-10 10.2786 0.731801 0.0259123 -1.3244e-10 1.49546e-10 1.25101e-10 2.22167 -0.733487 -0.20892 1.72716e-15 -8.42835e-14 1.88348e-14 -89.3717 22.7761 14.8329 17.2394 -9.89162 -32.3353 0.0601096 6.97887 -0.985744 3.01833e-10 3.04109e-10 -2.69552e-10 5.20399e-10 5.24814e-10 -4.69374e-10 3.01831e-10 3.04106e-10 -2.6953e-10 -7.73091 5.47488 -0.417314 3.01835e-10 3.04103e-10 -2.69546e-10 -2.90554 0.965183 -0.102902 3.01833e-10 3.04102e-10 -2.69551e-10 -10.2786 0.731801 -0.0259123 3.01843e-10 3.04105e-10 -2.69562e-10 -2.22167 -0.733487 0.20892 -2.03217e-16 0.0 -3.88251e-19 -21.6122 -2.83843 -0.0124248 -0.000216794 -0.796773 -0.00112143 0.407189 3.62259 -0.000332961 2.03217e-16 0.0 3.88251e-19 5.48492 -9.3692 -8.31753 0.0419746 20.9919 -0.506947 5.00916 -18.6181 14.8822
-4.21058 83.7533 29.5075 -0.7957 -3.4358 2.7487 -1.38277 -4.50706 2.25376 0.587459 -3.98243 0.655497 -3.18385 6.58308 -3.25458 7.40485 6.38724 -6.24822 -0.0 0.0 0.0 -0.0 0.0 0.0 3.70486e-15 -8.67523e-14 4.13701e-14 99.1312 13.3065 -25.5996 -20.6797 -13.3005 41.3137 -0.367875 16.4809 2.38737 -2.1186e-10 2.34812e-10 1.17259e-10 -3.65069e-10 4.04505e-10 2.06983e-10 -2.11855e-10 2.34812e-10 1.17249e-10 7.73091 5.47488 0.417314 -2.11861e-10 2.3481e-10 1.17261e-10 2.90554 0.965183 0.102902 -2.11852e-10 2.3481e-10 1.1726e-10 10.2786 0.731801 0.0259123 -2.11862e-10 2.34809e-10 1.17268e-10 2.22167 -0.733487 -0.20892 3.68379e-15 -8.67506e-14 4.11321e-14 -96.1418 24.2512 16.0669 18.0326 -10.3174 -34.6725 0.0737065 7.48243 -1.05806 1.52183e-10 -6.3631e-12 -2.73079e-10 2.61549e-10 -1.21248e-11 -4.74285e-10 1.52177e-10 -6.3668e-12 -2.73058e-10 -7.73091 5.47488 -0.417314 1.52182e-10 -6.37031e-12 -2.73073e-10 -2.90554 0.965183 -0.102902 1.5218e-10 -6.37032e-12 -2.73079e-10 -10.2786 0.731801 -0.0259123 1.52191e-10 -6.36657e-12 -2.73086e-10 -2.22167 -0.733487 0.20892 -2.03217e-16 0.0 -3.88251e-19 -23.1005 -2.90296 -0.0126234 0.000290654 -0.707933 0.00414848 0.470219 3.59756 -0.00997191 2.03217e-16 0.0 3.88251e-19 5.9297 -9.57639 -8.97158 0.0555298 22.1012 -0.544668 5.74879 -19.904 16.1008
-4.21301 83.7566 29.5169 -0.7964 -3.4519 2.7118 -1.36222 -4.45836 2.22999 0.578031 -3.94688 0.647406 -3.16091 6.52728 -3.22364 7.33017 6.34419 -6.19043 -0.0 0.0 0.0 -0.0 0.0 0.0 7.23893e-15 -8.1254e-14 7.20191e-14 98.3488 13.2393 -25.3956 -20.5988 -13.2655 41.0036 -0.360519 16.3721 2.37021 -3.01636e-10 3.40975e-10 9.32002e-11 -5.20631e-10 5.87553e-10 1.66707e-10 -3.01631e-10 3.40972e-10 9.31904e-11 7.73091 5.47488 0.417314 -3.01637e-10 3.40973e-10 9.32073e-11 2.90554 0.965183 0.102902 -3.01628e-10 3.40973e-10 9.32025e-11 10.2786 0.731801 0.0259123 -3.01638e-10 3.40972e-10 9.32093e-11 2.22167 -0.733487 -0.20892 7.20449e-15 -8.12536e-14 7.18482e-14 -95.3902 24.0717 15.9308 17.947 -10.2731 -34.4134 0.0725344 7.44703 -1.05296 -8.89115e-11 -4.9359e-10 -2.47592e-10 -1.55312e-10 -8.54625e-10 -4.28118e-10 -8.89222e-11 -4.93595e-10 -2.47575e-10 -7.73091 5.47488 -0.417314 -8.8916e-11 -4.93598e-10 -2.47588e-10 -2.90554 0.965183 -0.102902 -8.89199e-11 -4.93597e-10 -2.47592e-10 -10.2786 0.731801 -0.0259123 -8.89059e-11 -4.93592e-10 -2.47596e-10 -2.22167 -0.733487 0.20892 -2.03217e-16 0.0 -3.88251e-19 -22.9362 -2.89583 -0.0125925 0.000241882 -0.719859 0.00362639 0.463532 3.6024 -0.0089205 2.03217e-16 0.0 3.88251e-19 5.87516 -9.51976 -8.98488 0.0542555 21.9828 -0.542607 5.6984 -19.8038 16.0243
